<svg xmlns="http://www.w3.org/2000/svg" width="1600" height="1200">
  <text x="50" y="80" font-size="48" font-family="Arial">A: 🜀</text>
  <text x="150" y="80" font-size="48" font-family="Arial">B: 🜁</text>
  <text x="250" y="80" font-size="48" font-family="Arial">C: 🜂</text>
  <text x="350" y="80" font-size="48" font-family="Arial">D: 🜃</text>
  <text x="450" y="80" font-size="48" font-family="Arial">E: 🜄</text>
  <text x="550" y="80" font-size="48" font-family="Arial">F: 🜅</text>
  <text x="650" y="80" font-size="48" font-family="Arial">G: 🜆</text>
  <text x="750" y="80" font-size="48" font-family="Arial">H: 🜇</text>
  <text x="850" y="80" font-size="48" font-family="Arial">I: 🜈</text>
  <text x="950" y="80" font-size="48" font-family="Arial">J: 🜉</text>
  <text x="1050" y="80" font-size="48" font-family="Arial">K: 🜊</text>
  <text x="1150" y="80" font-size="48" font-family="Arial">L: 🜋</text>
  <text x="1250" y="80" font-size="48" font-family="Arial">M: 🜌</text>

  <text x="50" y="180" font-size="48" font-family="Arial">N: 🜍</text>
  <text x="150" y="180" font-size="48" font-family="Arial">O: 🜎</text>
  <text x="250" y="180" font-size="48" font-family="Arial">P: 🜏</text>
  <text x="350" y="180" font-size="48" font-family="Arial">Q: 🜐</text>
  <text x="450" y="180" font-size="48" font-family="Arial">R: 🜑</text>
  <text x="550" y="180" font-size="48" font-family="Arial">S: 🜒</text>
  <text x="650" y="180" font-size="48" font-family="Arial">T: 🜓</text>
  <text x="750" y="180" font-size="48" font-family="Arial">U: 🜔</text>
  <text x="850" y="180" font-size="48" font-family="Arial">V: 🜕</text>
  <text x="950" y="180" font-size="48" font-family="Arial">W: 🜖</text>
  <text x="1050" y="180" font-size="48" font-family="Arial">X: 🜗</text>
  <text x="1150" y="180" font-size="48" font-family="Arial">Y: 🜘</text>
  <text x="1250" y="180" font-size="48" font-family="Arial">Z: 🜙</text>

  <text x="50" y="280" font-size="48" font-family="Arial">a: 🜚</text>
  <text x="150" y="280" font-size="48" font-family="Arial">b: 🜛</text>
  <text x="250" y="280" font-size="48" font-family="Arial">c: 🜜</text>
  <text x="350" y="280" font-size="48" font-family="Arial">d: 🜝</text>
  <text x="450" y="280" font-size="48" font-family="Arial">e: 🜞</text>
  <text x="550" y="280" font-size="48" font-family="Arial">f: 🜟</text>
  <text x="650" y="280" font-size="48" font-family="Arial">g: 🜠</text>
  <text x="750" y="280" font-size="48" font-family="Arial">h: 🜡</text>
  <text x="850" y="280" font-size="48" font-family="Arial">i: 🜢</text>
  <text x="950" y="280" font-size="48" font-family="Arial">j: 🜣</text>
  <text x="1050" y="280" font-size="48" font-family="Arial">k: 🜤</text>
  <text x="1150" y="280" font-size="48" font-family="Arial">l: 🜥</text>
  <text x="1250" y="280" font-size="48" font-family="Arial">m: 🜦</text>

  <text x="50" y="380" font-size="48" font-family="Arial">0: 🜴</text>
  <text x="150" y="380" font-size="48" font-family="Arial">1: 🜵</text>
  <text x="250" y="380" font-size="48" font-family="Arial">2: 🜶</text>
  <text x="350" y="380" font-size="48" font-family="Arial">3: 🜷</text>
  <text x="450" y="380" font-size="48" font-family="Arial">4: 🜸</text>
  <text x="550" y="380" font-size="48" font-family="Arial">5: 🜹</text>
  <text x="650" y="380" font-size="48" font-family="Arial">6: 🜺</text>
  <text x="750" y="380" font-size="48" font-family="Arial">7: 🜻</text>
  <text x="850" y="380" font-size="48" font-family="Arial">8: 🜼</text>
  <text x="950" y="380" font-size="48" font-family="Arial">9: 🜽</text>
</svg>

